<svg width="24" height="25" viewBox="0 0 24 25" fill="none" xmlns="http://www.w3.org/2000/svg">
<path d="M19.2984 10.066H4.70235C4.40702 10.0666 4.11563 10.1338 3.84986 10.2627C3.5841 10.3915 3.35081 10.5786 3.16735 10.81C2.98512 11.0412 2.85776 11.3107 2.79488 11.5982C2.732 11.8858 2.73523 12.1839 2.80435 12.47L4.36935 18.878C4.59553 19.7038 5.08758 20.432 5.76935 20.95C6.45135 21.469 7.28635 21.75 8.14535 21.75H15.8534C16.7124 21.75 17.5474 21.469 18.2294 20.95C18.9111 20.432 19.4032 19.7038 19.6294 18.878L21.1944 12.471C21.2997 12.0391 21.2535 11.584 21.0634 11.1821C20.8734 10.7802 20.551 10.4557 20.1504 10.263C19.8842 10.1338 19.5922 10.0665 19.2964 10.066M8.08735 13.96V17.855M12.0004 13.96V17.855M15.9134 13.96V17.855M18.8484 10.066C18.848 9.17005 18.6706 8.28299 18.3264 7.45582C17.9821 6.62864 17.4778 5.87765 16.8424 5.246C15.5556 3.96687 13.8147 3.24924 12.0004 3.25C10.186 3.24924 8.44512 3.96687 7.15835 5.246C6.52312 5.87773 6.01897 6.62876 5.67489 7.45593C5.3308 8.2831 5.15356 9.17012 5.15335 10.066" stroke="black" stroke-width="1.5" stroke-linecap="round" stroke-linejoin="round"/>
</svg>
