<svg width="24" height="25" viewBox="0 0 24 25" fill="none" xmlns="http://www.w3.org/2000/svg">
<path d="M19 7.5C19 6.96957 18.7893 6.46086 18.4142 6.08579C18.0391 5.71071 17.5304 5.5 17 5.5H14V7.5H17V10.15L13.5 14.5H10V9.5H6C3.79 9.5 2 11.29 2 13.5V16.5H4C4 18.16 5.34 19.5 7 19.5C8.66 19.5 10 18.16 10 16.5H14.5L19 10.85V7.5ZM7 17.5C6.45 17.5 6 17.05 6 16.5H8C8 17.05 7.55 17.5 7 17.5ZM8 14.5H4V13.5C4 12.4 4.9 11.5 6 11.5H8V14.5ZM19 13.5C17.34 13.5 16 14.84 16 16.5C16 18.16 17.34 19.5 19 19.5C20.66 19.5 22 18.16 22 16.5C22 14.84 20.66 13.5 19 13.5ZM19 17.5C18.45 17.5 18 17.05 18 16.5C18 15.95 18.45 15.5 19 15.5C19.55 15.5 20 15.95 20 16.5C20 17.05 19.55 17.5 19 17.5ZM10 8.5H5V6.5H10V8.5Z" fill="black"/>
</svg>
